# ProBuilder 5.2.3
# https://unity3d.com/unity/features/worldbuilding/probuilder
# 2024-09-25 1:18:19 PM

mtllib ./Pump.mtl
o Pump

g Pump
v 0.01666029 -0.00961882 0.06133186
v 0.01455808 0 0.09486135
v 0.01923764 0 0.06133186
v 0.01455808 0.00961882 0.09486135
v 1.177966E-18 -0.01923764 0.06133186
v 0.01455808 -0.00961882 0.09486135
v 0.00961882 -0.01666029 0.06133186
v -0.01666029 0.00961882 0.06133186
v -0.01455808 -4.564168E-18 0.09486135
v -0.01923764 -4.564168E-18 0.06133186
v 0.01666029 0.00961882 0.06133186
v 0.01455808 0.02445214 0.09486135
v 0.00961882 0.02445214 0.06133186
v 1.177966E-18 -0.01923764 0.09486135
v -0.00961882 -0.01666029 0.06133186
v -0.01455808 -0.00961882 0.09486135
v -0.01455808 0.00961882 0.09486135
v -0.00961882 0.02445214 0.06133186
v -0.01455808 0.02445214 0.09486135
v -0.01666029 -0.00961882 0.06133186
v 0.00961882 -0.01666029 -0.09486135
v 0.01666029 -0.00961882 -0.06463571
v 0.01666029 -0.00961882 -0.09486135
v 0.00961882 -0.01666029 -0.06463571
v -0.00961882 -0.01666029 -0.09486135
v 1.177966E-18 -0.01923764 -0.06463571
v 1.177966E-18 -0.01923764 -0.09486135
v -0.00961882 -0.01666029 -0.06463571
v -3.533897E-18 0.02445214 0.09486135
v -3.533897E-18 0.02445214 0.06133186
v 0.00961882 0.02445214 -0.06463571
v -3.533897E-18 0.02445214 -0.06463571
v 0.00961882 0.02445214 -0.09486135
v -0.00961882 0.02445214 -0.06463571
v -3.533897E-18 0.02445214 -0.09486135
v -0.00961882 0.02445214 -0.09486135
v -0.01666029 -0.00961882 -0.06463571
v -0.01666029 -0.00961882 -0.09486135
v -0.01923764 -4.564168E-18 -0.09486135
v -0.01923764 -4.564168E-18 -0.06463571
v -0.01666029 0.00961882 -0.06463571
v -0.01666029 0.00961882 -0.09486135
v 0.01923764 0 -0.09486135
v 0.01666029 0.00961882 -0.06463571
v 0.01666029 0.00961882 -0.09486135
v 0.01923764 0 -0.06463571
v 0.01083183 0.005050838 0.03905964
v -0.0006084442 0.004245162 0.04173756
v 0.01338959 0.01436901 0.03905964
v -0.003166199 -0.005073011 0.04313278
v 0.004137039 -0.000708133 0.03905964
v 0.0004425049 0.0006512105 0.04173756
v 0.001995087 -0.000708133 0.03905964
v -0.01813507 -0.002670348 0.05144215
v -0.01083183 -0.005073011 0.03766441
v -0.01083183 0.003088623 0.05144215
v -0.007257462 0.004245162 0.03766441
v -0.007257462 0.004245162 0.03573418
v -0.004699707 0.01356333 0.04137802
v -0.01083183 0.01356333 0.05722618
v -0.004137039 0.01932231 0.03905964
v -0.004137039 0.01932231 0.04313278
v 0.004137039 0.01932231 0.03905964
v 0.004137039 0.01932231 0.04313278
v 0.01083183 0.01356333 0.03905964
v -0.009807587 0.004363328 0.04226208
v 0.0009746552 0.004930884 0.04607391
v -0.009807587 -0.002361953 0.04028988
v 0.0009746552 0.003352046 0.04226208
v -0.01714516 -0.002371579 0.04110241
v -0.009807587 -0.006135255 0.04402256
v -0.004276276 0.008582801 0.04337215
v 0.003061295 0.009888798 0.03880882
v -0.009807587 -0.002825618 0.04019165
v 0.0009746552 0.009664208 0.04068375
v -0.009807587 -0.0004596412 0.04068375
v 0.0009746552 0.004467219 0.04226208
v 0.003501892 0.002019823 0.04978752
v -0.009807587 0.003304034 0.04195213
v 0.003501892 0.002869636 0.04773617
v -0.01593971 -0.002926677 0.04028988
v -0.01593971 0.001543999 0.04410172
v 0.0009746552 0.002888381 0.04607391
v -0.009807587 0.005719393 0.04028988
v -0.01511192 -0.002825618 0.04410172
v -0.01714516 -0.002371579 0.04690456
v -0.01189613 0.006661654 0.04605484
v 0.003501892 0.002869636 0.05183887
v -0.01189613 -2.524257E-05 0.04690456
v -0.009807587 0.003786445 0.04410172
v -0.005157471 -0.0004596412 0.05146408
v -0.01189613 -2.524257E-05 0.04568005
v -0.005157471 0.003786445 0.04410172
v -0.004276276 0.009432614 0.04542351
v -0.003070831 0.01092914 0.04376125
v -0.004276276 0.008582801 0.04747486
v -0.009807587 0.005272806 0.04028988
v -0.004871368 0.003556579 0.04028988
v 0.0009746552 0.002507508 0.03775692
v -0.004871368 0.002073109 0.04354095
v 0.0009746552 0.003122181 0.04607391
v 0.0009746552 -0.0004596412 0.04249191
v -0.004871368 -0.0004596412 0.04249191
v 0.0009746552 0.005746156 0.04354095
v -0.004871368 0.005746156 0.04354095
v -0.004871368 0.005131453 0.04028988
v -0.01511192 -0.001546681 0.04282284
v -0.006959915 0.006180555 0.04282284
v -0.005157471 -2.524257E-05 0.04387188
v -0.006959915 -0.0004596412 0.05336952
v -0.005157471 0.002507508 0.04282284
v -0.01100349 0.002507508 0.04282284
v -0.01714516 -0.002371579 0.04400349
v 0.006132126 0.004245162 0.03905964
v 0 0 0.09486135
v 0 0 -0.09486135
v -0.004871368 -2.524257E-05 0.04028988
v -0.003166199 0.01356333 0.04173756
v 0 0.004245162 0.05722618
v -0.003166199 0.008182436 0.04929352
v -0.007741928 0.002944082 0.0480032
v -0.007799149 0.008103967 0.05557251

vt 0.336406 0.646313
vt 0.3307262 0.6479473
vt 0.336406 0.6479473
vt 0.3307262 0.6495815
vt 0.4200439 0.7221249
vt 0.4225101 0.7278217
vt 0.4216734 0.7221249
vt 0.3571853 0.6417864
vt 0.3628651 0.6401521
vt 0.3571853 0.6401521
vt 0.336406 0.6495815
vt 0.3307262 0.6521018
vt 0.336406 0.6521018
vt 0.4200439 0.7278217
vt 0.4184145 0.7221249
vt 0.4175778 0.7278217
vt 0.3628651 0.6385178
vt 0.3628651 0.6417864
vt 0.3571853 0.6443067
vt 0.3628651 0.6443067
vt 0.3307262 0.646313
vt 0.3571853 0.6385178
vt 0.4216734 0.6955868
vt 0.4228662 0.7007223
vt 0.4228662 0.6955868
vt 0.4216734 0.7007223
vt 0.4228662 0.7221249
vt 0.4184145 0.6955868
vt 0.4200439 0.7007223
vt 0.4200439 0.6955868
vt 0.4184145 0.7007223
vt 0.4353274 0.6848401
vt 0.4369568 0.6905369
vt 0.4377935 0.6848401
vt 0.4353274 0.6905369
vt 0.4328612 0.6848401
vt 0.4369568 0.7119395
vt 0.433698 0.6905369
vt 0.4353274 0.7119395
vt 0.4369568 0.717075
vt 0.433698 0.7119395
vt 0.4353274 0.717075
vt 0.433698 0.717075
vt 0.4172216 0.7221249
vt 0.4172216 0.7007223
vt 0.4172216 0.6955868
vt 0.3307262 0.6401521
vt 0.3358463 0.6385178
vt 0.3307262 0.6385178
vt 0.3358463 0.6401521
vt 0.3307262 0.6443067
vt 0.3358463 0.6417864
vt 0.3307262 0.6417864
vt 0.3358463 0.6443067
vt 0.3628651 0.6479473
vt 0.357745 0.6495815
vt 0.3628651 0.6495815
vt 0.357745 0.6479473
vt 0.3628651 0.646313
vt 0.357745 0.646313
vt 0.357745 0.6521018
vt 0.3628651 0.6521018
vt 0.6592955 0.8660265
vt 0.6598632 0.8833802
vt 0.6598632 0.8660265
vt 0.6592955 0.8833802
vt 0.6578093 0.8660265
vt 0.6578093 0.8833802
vt 0.6559722 0.8660265
vt 0.6559722 0.8833802
vt 0.6544859 0.8660265
vt 0.6544859 0.8833802
vt 0.6539183 0.8660265
vt 0.6539183 0.8833802
vt 0.6459196 0.8833802
vt 0.6453519 0.8660265
vt 0.6453519 0.8833802
vt 0.6459196 0.8660265
vt 0.6474058 0.8833802
vt 0.6474058 0.8660265
vt 0.6492429 0.8833802
vt 0.6492429 0.8660265
vt 0.6507291 0.8833802
vt 0.5814254 0.842381
vt 0.5838191 0.8415323
vt 0.5814254 0.8415323
vt 0.5838191 0.842381
vt 0.6235642 0.9026513
vt 0.6283008 0.9024621
vt 0.6235642 0.9024621
vt 0.6283008 0.9026513
vt 0.6891862 0.8457708
vt 0.6915799 0.8454193
vt 0.6891862 0.8454193
vt 0.6915799 0.8457708
vt 0.6309222 0.9020053
vt 0.6356587 0.9015484
vt 0.6309222 0.9015484
vt 0.6356587 0.9020053
vt 0.6891862 0.8474684
vt 0.6915799 0.8466196
vt 0.6891862 0.8466196
vt 0.6915799 0.8474684
vt 0.6309222 0.9026513
vt 0.6356587 0.9026513
vt 0.5814254 0.8406836
vt 0.5838191 0.840332
vt 0.5814254 0.840332
vt 0.5838191 0.8406836
vt 0.6283008 0.9015484
vt 0.6235642 0.9015484
vt 0.5814254 0.8427325
vt 0.5838191 0.8427325
vt 0.6356587 0.9013592
vt 0.6309222 0.9013592
vt 0.6891862 0.8478199
vt 0.6915799 0.8478199
vt 0.6283008 0.9013592
vt 0.6235642 0.9013592
vt 0.5903597 0.8419272
vt 0.5916574 0.8416935
vt 0.5916574 0.8411297
vt 0.5903597 0.8411297
vt 0.5916574 0.8405657
vt 0.5903597 0.8405657
vt 0.5916574 0.840332
vt 0.5903597 0.840332
vt 0.5877383 0.840332
vt 0.5864406 0.8405657
vt 0.5877383 0.8405657
vt 0.5864406 0.840332
vt 0.5864406 0.8411297
vt 0.5877383 0.8411297
vt 0.5864406 0.8416935
vt 0.5877383 0.8416935
vt 0.5955671 0.8412811
vt 0.5953784 0.8408242
vt 0.594923 0.8412811
vt 0.5953784 0.8417379
vt 0.594923 0.8406351
vt 0.594923 0.8419272
vt 0.5944675 0.8408242
vt 0.5944675 0.8417379
vt 0.5942788 0.8412811
vt 0.6367476 0.8542151
vt 0.6382338 0.8554975
vt 0.6391523 0.8521403
vt 0.6361799 0.8521403
vt 0.6400709 0.8554975
vt 0.6367476 0.8500655
vt 0.6415572 0.8542151
vt 0.6382338 0.8487831
vt 0.6421248 0.8521403
vt 0.6400709 0.8487831
vt 0.6415572 0.8500655
vt 0.402323 0.7000795
vt 0.3998568 0.6984452
vt 0.402323 0.7025998
vt 0.402323 0.6984452
vt 0.3998568 0.7025998
vt 0.402323 0.6968109
vt 0.3973908 0.7025998
vt 0.3998568 0.6951766
vt 0.3973908 0.7000795
vt 0.3973908 0.6968109
vt 0.3973908 0.6984452
vt 0.4040771 0.6230911
vt 0.4057066 0.6230911
vt 0.4057066 0.6189365
vt 0.4028843 0.6205708
vt 0.407336 0.6230911
vt 0.4024477 0.6189365
vt 0.4085288 0.6205708
vt 0.4028843 0.6173023
vt 0.4089654 0.6189365
vt 0.4040771 0.6161059
vt 0.4085288 0.6173023
vt 0.4057066 0.615668
vt 0.407336 0.6161059
vt 0.5996267 0.941479
vt 0.5997463 0.9415287
vt 0.6195829 0.8569609
vt 0.6171781 0.8548861
vt 0.6180966 0.8582432
vt 0.6201506 0.8548861
vt 0.6162596 0.8582432
vt 0.6195829 0.8528112
vt 0.6147733 0.8569609
vt 0.6180966 0.851529
vt 0.6142056 0.8548861
vt 0.6162596 0.851529
vt 0.6147733 0.8528112
vt 0.6915249 0.8834919
vt 0.6906787 0.8832891
vt 0.6906787 0.8838434
vt 0.6911342 0.8830999
vt 0.6902233 0.8830999
vt 0.6918754 0.8826431
vt 0.6898325 0.8834919
vt 0.6913229 0.8826431
vt 0.6900346 0.8826431
vt 0.6915249 0.8817943
vt 0.689482 0.8826431
vt 0.6911342 0.8821863
vt 0.6902233 0.8821863
vt 0.6906787 0.8814429
vt 0.6898325 0.8817943
vt 0.6906787 0.8819971
vt 0.689537 0.8424385
vt 0.689588 0.8415898
vt 0.6891865 0.8415898
vt 0.6898209 0.8410258
vt 0.6903831 0.84279
vt 0.689537 0.840741
vt 0.6903831 0.8423873
vt 0.6903831 0.8407922
vt 0.6912293 0.8424385
vt 0.6903831 0.8403895
vt 0.6909454 0.8421537
vt 0.6909454 0.8410258
vt 0.6915799 0.8415898
vt 0.6912293 0.840741
vt 0.6911783 0.8415898
vt -0.02638028 0.01089482
vt -0.021173 0.01620642
vt -0.0133504 0.01042858
vt -0.03068496 0.005030049
vt 0.000561583 0.04830301
vt -0.01440639 0.03802726
vt -0.01708803 0.03802726
vt 0.006499731 0.04734457
vt -0.006076003 0.04824407
vt 0.01779633 0.03946566
vt 0.00102562 0.04190585
vt 0.002143593 0.04244649
vt -0.004196715 0.05607207
vt 0.007643622 0.04411043
vt 0.0112355 0.04913409
vt 0.01163005 0.03356107
vt 0.007927621 0.04206628

vn 0.9572665 -0.2564986 0.1336013
vn 0.9904007 0 0.1382257
vn 0.2553773 -0.9530817 0.162535
vn -0.9572665 0.2564986 0.1336013
vn 0.8954859 0.4250924 -0.131915
vn -0.5488408 -0.8306704 0.09359729
vn -0.9904007 0 0.1382257
vn -0.9893232 0 -0.1457382
vn 0.9980403 0 0.06257426
vn 0.9641594 0.2583456 0.06045003
vn 0.5512608 -0.8343331 0
vn -0.9980403 0 0.06257426
vn -0.9641594 -0.2583456 0.06045003
vn -0.9019349 0.4281538 0.05654874
vn 0.7071068 -0.7071068 0
vn 0.7064129 -0.7064129 0.04429007
vn -0.2588189 -0.9659259 0
vn 0 1 0
vn -0.7064129 -0.7064129 0.04429007
vn -0.7071068 -0.7071068 0
vn -0.9659259 -0.2588189 0
vn -0.9033805 0.42884 0
vn 0.9659259 0.2588189 0
vn 0.9659259 -0.2588189 0
vn 0.2588189 -0.9659259 0
vn -0.9659259 0.2588189 0
vn 0.9033805 0.42884 0
vn 0.2316999 -0.06359954 0.970706
vn 0.221441 0.08467929 0.9714903
vn 0.6141912 -0.7139961 0.3361233
vn -0.5458537 0.1428869 -0.8256071
vn 0 0 0
vn 0.4318748 -0.6781584 0.5946304
vn 0.2767807 -0.9110473 0.3055899
vn -0.5614309 0.7119784 -0.4217608
vn -0.9133367 0.3503481 -0.2075388
vn 0.9643308 -0.2647001 0
vn -0.8425583 0.4287335 -0.326011
vn -0.9312561 -0.05407157 -0.3603308
vn -0.6521336 0.7581041 0
vn 0.6521336 0.7581041 0
vn -0.3085962 -0.2676669 0.9127556
vn 0.08632913 0.9204369 -0.381239
vn 0.2966036 -0.1531254 -0.9426447
vn -0.1472427 0.4109775 0.8996761
vn -0.1877947 0.2000078 -0.9616289
vn 0.3554519 -0.2716177 -0.8943589
vn -0.1349273 0.915413 0.3792277
vn -0.4748763 0.2415992 0.8462402
vn 0.1340458 -0.7682827 -0.6259181
vn 0.1140923 0.02161388 -0.993235
vn -0.2850973 0.2526383 0.9246045
vn 0.05625981 -0.1258596 -0.9904515
vn -0.5212386 0.5542963 0.648896
vn 0 0.8662586 0.499596
vn -0.6803358 0.7169454 0.1520939
vn 0.3215434 -0.8747994 0.3624028
vn -0.5820009 0.2528803 0.7728691
vn -0.2220777 0.2365202 0.9459068
vn 0.02915881 0.3108898 -0.9499986
vn 0.3710501 -0.7210082 -0.5852084
vn -0.2392418 0.7575116 0.6074041
vn -0.03727339 -0.9232441 -0.3824017
vn -0.1811853 -0.01130441 0.983384
vn -0.04803056 0.922795 -0.3822858
vn 0.4029832 0.3407572 -0.8494051
vn -0.6127162 0.2890416 0.73555
vn -0.3872079 -0.07335347 0.9190699
vn 0.04865633 -0.1088498 0.9928667
vn 0.7436793 -0.647208 -0.1675201
vn 0.2144513 0.392352 -0.8944666
vn 0 0.5269226 -0.8499132
vn 0.3245493 0.8605171 0.3926551
vn -0.1454639 -0.9866726 0.07292069
vn 0 -0.3826655 0.923887
vn 0.4197055 0.7691261 0.4819673
vn 0 0.1666776 -0.9860114
vn -0.248755 -0.9517041 0.1799451
vn 0 0.9238905 0.3826571
vn 0.5195709 -0.5481321 0.6554367
vn -0.4004556 0.7901008 0.4640864
vn 0.933508 0.3034264 0.1910373
vn 0.1235986 -0.130393 -0.9837282
vn 0 -0.9626297 -0.2708212
vn -0.9787756 -0.07842162 -0.189337
vn 0.09686906 -0.9804034 -0.1715385
vn 0 0.982592 -0.1857763
vn 0.2460445 -0.9692585 0
vn -0.648192 0.7614769 0
vn 0.08892477 -0.9202012 0.3812113
vn -0.6646852 0.6902385 0.2859448
vn 0.2906047 -0.8839903 -0.3662103
vn -0.6271591 0.7195874 -0.2981031
vn 0 0 -1
vn -0.4382511 -0.2984964 -0.8478419
vn 0.09726613 0.3453071 -0.9334357
vn 0.1035593 -0.03972447 -0.9938297
vn 0.1490695 -0.1245043 -0.9809572
vn 0 0 1
vn 0.4136404 0.9053524 0.09611816
vn 0.3817762 0 0.9242548
vn -0.953418 -0.2552715 -0.160719
vn -1 0 0
vn -0.7715444 0 -0.6361755
vn 1 0 0
vn 0.5929642 -0.6306777 -0.5006388
vn 0.9636396 0.2645104 -0.03785494
vn 0 0.6828722 0.7305379
vn 0.9621827 -0.26977 -0.03779771
vn 0.5543726 0.6444258 0.5266749
vn -0.8526188 0.5031215 -0.1411024
vn -0.636891 -0.7403487 0.2150666
vn 0.2839087 -0.9322183 0.2244214
vn -0.1290464 0.9906806 0.04357665
vn -0.4372769 0.5545326 0.7080131
vn 0.6960566 -0.6689309 -0.2608383
vn 0.5631935 -0.5601426 -0.6074977
vn 0.7787213 -0.6273701 0
vn -0.1901071 -0.1623627 -0.9682447
vn 0.3621921 -0.2899048 0.8858736
vn -0.5382819 0.1062383 0.8360419
vn -0.3672786 0.2970399 -0.8814044
vn -0.6659126 0.6593537 -0.3490174
vn 0.7599127 -0.5389594 0.3633941
vn -0.01994164 0.275993 -0.9609528
vn 0.01620491 -0.01149315 0.9998026
vn 0.1566521 -0.9860412 -0.05641776
vn -0.09502688 -0.7038905 0.7039233
vn 0.5685123 -0.5817054 -0.5817325
vn -0.4684116 0 0.8835104
vn -0.3851557 0.6525394 0.6525699
vn -0.1216879 0 0.9925684
vn -0.6016045 0.6506653 0.4633645
vn -0.01687935 0.3657076 0.6412645
vn 0.5678458 0.08074991 0.8191646
vn 0.13322 0.1618286 0.3133442
vn -0.2992166 0.9499137 0.09018533
vn 0.5656566 -0.6262564 0.5365031
vn 0.01112387 0.02187952 0.01720797
vn 0.5660309 -0.6477565 0.5099222
vn -0.2881647 -0.06654786 -0.119526
vn -0.8867418 -0.2434026 -0.392994
vn -0.7152624 0.2240565 -0.4342502
vn 0.6164004 -0.6484625 0.4467067
vn 0.613838 -0.001902789 0.4528962
vn 0.6112756 0.644657 0.4590856

usemtl Gun_MAT
f 3/3/1 2/2/1 1/1/1
f 2/2/2 3/3/2 4/4/2
f 7/7/3 6/6/3 5/5/3
f 10/10/4 9/9/4 8/8/4
f 13/13/5 12/12/5 11/11/5
f 16/16/6 15/15/6 14/14/6
f 9/9/7 10/10/7 16/17/7
f 19/20/8 18/19/8 17/18/8
f 1/1/9 2/2/9 6/21/9
f 4/4/10 3/3/10 11/11/10
f 5/5/11 6/6/11 14/14/11
f 8/8/12 9/9/12 17/18/12
f 11/11/9 12/12/9 4/4/9
f 16/17/13 10/10/13 20/22/13
f 17/18/14 18/19/14 8/8/14
f 23/25/15 22/24/15 21/23/15
f 21/23/15 22/24/15 24/26/15
f 1/27/15 24/26/15 22/24/15
f 7/7/15 24/26/15 1/27/15
f 6/6/16 7/7/16 1/27/16
f 27/30/17 26/29/17 25/28/17
f 25/28/17 26/29/17 28/31/17
f 5/5/17 28/31/17 26/29/17
f 15/15/17 28/31/17 5/5/17
f 14/14/17 15/15/17 5/5/17
f 12/34/18 13/33/18 29/32/18
f 29/32/18 13/33/18 30/35/18
f 30/35/18 19/36/18 29/32/18
f 13/33/18 31/37/18 30/35/18
f 18/38/18 19/36/18 30/35/18
f 30/35/18 31/37/18 32/39/18
f 32/39/18 18/38/18 30/35/18
f 33/40/18 32/39/18 31/37/18
f 34/41/18 18/38/18 32/39/18
f 35/42/18 32/39/18 33/40/18
f 35/42/18 34/41/18 32/39/18
f 36/43/18 34/41/18 35/42/18
f 20/44/19 15/15/19 16/16/19
f 37/45/20 15/15/20 20/44/20
f 28/31/20 15/15/20 37/45/20
f 38/46/20 28/31/20 37/45/20
f 25/28/20 28/31/20 38/46/20
f 38/49/21 37/48/21 39/47/21
f 39/47/21 37/48/21 40/50/21
f 20/22/21 40/50/21 37/48/21
f 10/10/21 40/50/21 20/22/21
f 42/53/22 41/52/22 36/51/22
f 36/51/22 41/52/22 34/54/22
f 8/8/22 34/54/22 41/52/22
f 18/19/22 34/54/22 8/8/22
f 45/57/23 44/56/23 43/55/23
f 43/55/23 44/56/23 46/58/23
f 11/11/23 46/58/23 44/56/23
f 3/3/23 46/58/23 11/11/23
f 43/55/24 46/58/24 23/59/24
f 23/59/24 46/58/24 22/60/24
f 46/58/24 3/3/24 22/60/24
f 22/60/24 3/3/24 1/1/24
f 21/23/25 24/26/25 27/30/25
f 27/30/25 24/26/25 26/29/25
f 24/26/25 7/7/25 26/29/25
f 26/29/25 7/7/25 5/5/25
f 39/47/26 40/50/26 42/53/26
f 42/53/26 40/50/26 41/52/26
f 40/50/26 10/10/26 41/52/26
f 41/52/26 10/10/26 8/8/26
f 33/62/27 31/61/27 45/57/27
f 45/57/27 31/61/27 44/56/27
f 31/61/27 13/13/27 44/56/27
f 44/56/27 13/13/27 11/11/27
f 49/65/28 48/64/28 47/63/28
f 47/63/29 48/64/29 50/66/29
f 47/63/30 50/66/30 51/67/30
f 51/67/31 50/66/31 52/68/31
f 51/67/32 52/68/32 53/69/32
f 53/69/33 52/68/33 54/70/33
f 53/69/34 54/70/34 55/71/34
f 55/71/35 54/70/35 56/72/35
f 55/71/36 56/72/36 57/73/36
f 57/73/32 56/72/32 58/74/32
f 57/77/37 58/76/37 59/75/37
f 59/75/38 58/76/38 60/78/38
f 59/75/39 60/78/39 61/79/39
f 61/79/40 60/78/40 62/80/40
f 61/79/18 62/80/18 63/81/18
f 63/81/18 62/80/18 64/82/18
f 63/81/41 64/82/41 65/83/41
f 48/234/141 49/233/140 121/232/139
f 48/234/141 121/232/139 122/236/143
f 118/235/142 48/234/141 122/236/143
f 68/86/42 67/85/42 66/84/42
f 66/84/43 67/85/43 69/87/43
f 72/90/44 71/89/44 70/88/44
f 70/88/45 71/89/45 73/91/45
f 76/94/46 75/93/46 74/92/46
f 74/92/47 75/93/47 77/95/47
f 80/98/48 79/97/48 78/96/48
f 78/96/49 79/97/49 81/99/49
f 84/102/50 83/101/50 82/100/50
f 82/100/51 83/101/51 85/103/51
f 88/96/52 87/99/52 86/104/52
f 86/104/53 87/99/53 89/105/53
f 92/108/54 91/107/54 90/106/54
f 90/106/55 91/107/55 93/109/55
f 96/111/32 95/110/32 94/90/32
f 94/90/56 95/110/56 97/89/56
f 94/90/57 97/89/57 72/90/57
f 72/90/58 97/89/58 71/89/58
f 75/113/59 76/112/59 69/87/59
f 69/87/60 76/112/60 66/84/60
f 70/115/61 73/114/61 80/98/61
f 80/98/62 73/114/62 79/97/62
f 83/101/63 84/102/63 77/95/63
f 77/95/64 84/102/64 74/92/64
f 78/96/65 81/99/65 88/96/65
f 88/96/66 81/99/66 87/99/66
f 91/117/67 92/116/67 85/103/67
f 85/103/68 92/116/68 82/100/68
f 86/119/69 89/118/69 96/111/69
f 96/111/70 89/118/70 95/110/70
f 67/85/71 68/86/71 93/109/71
f 93/109/72 68/86/72 90/106/72
f 100/120/73 99/121/73 98/120/73
f 98/120/74 99/121/74 101/121/74
f 103/123/75 102/122/75 100/120/75
f 100/120/76 102/122/76 99/121/76
f 105/125/77 104/124/77 103/123/77
f 103/123/77 104/124/77 102/122/77
f 106/127/78 67/126/78 105/125/78
f 105/125/79 67/126/79 104/124/79
f 108/130/80 107/129/80 106/128/80
f 106/128/81 107/129/81 67/131/81
f 110/133/82 109/132/82 108/130/82
f 108/130/83 109/132/83 107/129/83
f 112/135/84 111/134/84 110/133/84
f 110/133/85 111/134/85 109/132/85
f 98/135/86 101/134/86 112/135/86
f 112/135/87 101/134/87 111/134/87
f 113/138/88 88/137/88 86/136/88
f 113/138/89 86/136/89 96/139/89
f 113/138/90 78/140/90 88/137/90
f 113/138/91 96/139/91 94/141/91
f 113/138/92 80/142/92 78/140/92
f 113/138/93 94/141/93 72/143/93
f 113/138/88 70/144/88 80/142/88
f 113/138/89 72/143/89 70/144/89
f 114/147/94 63/146/94 65/145/94
f 114/147/94 65/145/94 49/148/94
f 114/147/94 61/149/94 63/146/94
f 114/147/94 49/148/94 47/150/94
f 114/147/95 59/151/95 61/149/95
f 114/147/94 47/150/94 51/152/94
f 114/147/96 57/153/96 59/151/96
f 114/147/94 51/152/94 53/154/94
f 114/147/97 55/155/97 57/153/97
f 114/147/98 53/154/98 55/155/98
f 12/158/99 115/157/99 4/156/99
f 4/156/99 115/157/99 2/159/99
f 29/160/99 115/157/99 12/158/99
f 2/159/99 115/157/99 6/161/99
f 19/162/99 115/157/99 29/160/99
f 6/161/99 115/157/99 14/163/99
f 17/164/99 115/157/99 19/162/99
f 14/163/99 115/157/99 16/165/99
f 9/166/99 115/157/99 17/164/99
f 16/165/99 115/157/99 9/166/99
f 116/169/94 35/168/94 33/167/94
f 116/169/94 33/167/94 45/170/94
f 116/169/94 36/171/94 35/168/94
f 116/169/94 45/170/94 43/172/94
f 116/169/94 42/173/94 36/171/94
f 116/169/94 43/172/94 23/174/94
f 116/169/94 39/175/94 42/173/94
f 116/169/94 23/174/94 21/176/94
f 116/169/94 38/177/94 39/175/94
f 116/169/94 21/176/94 27/178/94
f 116/169/94 25/179/94 38/177/94
f 116/169/94 27/178/94 25/179/94
f 110/180/100 117/180/100 112/180/100
f 112/180/101 117/180/101 98/181/101
f 108/180/102 117/180/102 110/180/102
f 98/181/103 117/180/103 100/180/103
f 106/180/104 117/180/104 108/180/104
f 100/180/32 117/180/32 103/180/32
f 105/180/105 117/180/105 106/180/105
f 103/180/105 117/180/105 105/180/105
f 64/184/106 119/183/106 118/182/106
f 118/182/107 119/183/107 48/185/107
f 62/186/108 119/183/108 64/184/108
f 48/185/109 119/183/109 50/187/109
f 60/188/110 119/183/110 62/186/110
f 50/187/111 119/183/111 52/189/111
f 58/190/112 119/183/112 60/188/112
f 52/189/113 119/183/113 54/191/113
f 56/192/114 119/183/114 58/190/114
f 54/191/115 119/183/115 56/192/115
f 68/195/105 97/194/105 90/193/105
f 90/193/116 97/194/116 95/196/116
f 68/195/103 71/197/103 97/194/103
f 90/193/117 95/196/117 92/198/117
f 66/199/105 71/197/105 68/195/105
f 92/198/118 95/196/118 89/200/118
f 66/199/119 73/201/119 71/197/119
f 92/198/32 89/200/32 82/202/32
f 76/203/120 73/201/120 66/199/120
f 82/202/121 89/200/121 87/204/121
f 76/203/122 79/205/122 73/201/122
f 82/202/123 87/204/123 84/206/123
f 74/207/32 79/205/32 76/203/32
f 84/206/124 87/204/124 81/208/124
f 74/207/125 81/208/125 79/205/125
f 84/206/126 81/208/126 74/207/126
f 91/211/105 109/210/105 93/209/105
f 93/209/32 109/210/32 111/209/32
f 91/211/127 107/212/127 109/210/127
f 93/209/128 111/209/128 67/213/128
f 85/214/129 107/212/129 91/211/129
f 67/213/130 111/209/130 101/215/130
f 85/214/131 67/216/131 107/212/131
f 67/213/32 101/215/32 69/217/32
f 83/218/132 67/216/132 85/214/132
f 69/217/32 101/215/32 99/219/32
f 83/218/32 104/220/32 67/216/32
f 69/217/105 99/219/105 75/221/105
f 77/222/32 104/220/32 83/218/32
f 75/221/103 99/219/103 102/223/103
f 77/222/32 102/223/32 104/220/32
f 75/221/32 102/223/32 77/222/32
f 118/224/133 120/227/134 65/226/135
f 65/226/135 64/225/134 118/224/133
f 49/230/136 65/229/137 120/228/136
f 120/228/136 121/231/138 49/230/136
f 120/240/145 118/239/146 122/238/145
f 122/238/145 121/237/144 120/240/145
f 120/240/145 118/239/146 122/238/145
f 122/238/145 121/237/144 120/240/145

